HIERARCHY
ROOT Hips
{
	OFFSET 0.000000 0.000000 0.000000
	CHANNELS 6 Xposition Yposition Zposition Xrotation Yrotation Zrotation
	JOINT LeftUpLeg_virtual
	{
		OFFSET 0.000000 0.000000 0.000000
		CHANNELS 3 Xrotation Yrotation Zrotation
		JOINT LeftUpLeg
		{
			OFFSET 11.394100 -6.187798 -0.413800
			CHANNELS 3 Xrotation Yrotation Zrotation
			JOINT LeftLeg
			{
				OFFSET 0.430247 -32.302673 3.732800
				CHANNELS 3 Xrotation Yrotation Zrotation
				JOINT LeftFoot
				{
					OFFSET -0.430247 -48.264931 -6.423300
					CHANNELS 3 Xrotation Yrotation Zrotation
					JOINT LeftToeBase
					{
						OFFSET 4.230900 -16.068199 23.438400
						CHANNELS 3 Xrotation Yrotation Zrotation
						JOINT LeftToe_End
						{
							OFFSET 4.510700 0.695400 19.974600
							CHANNELS 3 Xrotation Yrotation Zrotation
							End Site
							{
								OFFSET 0 0 0
							}
						}
					}
				}
			}
		}
	}
	JOINT RightUpLeg_virtual
	{
		OFFSET 0.000000 0.000000 0.000000
		CHANNELS 3 Xrotation Yrotation Zrotation
		JOINT RightUpLeg
		{
			OFFSET -11.333700 -6.187798 -0.413800
			CHANNELS 3 Xrotation Yrotation Zrotation
			JOINT RightLeg
			{
				OFFSET -0.430392 -32.302628 3.733000
				CHANNELS 3 Xrotation Yrotation Zrotation
				JOINT RightFoot
				{
					OFFSET 0.430392 -48.264973 -6.423500
					CHANNELS 3 Xrotation Yrotation Zrotation
					JOINT RightToeBase
					{
						OFFSET -4.230900 -16.068199 23.438400
						CHANNELS 3 Xrotation Yrotation Zrotation
						JOINT RightToe_End
						{
							OFFSET -4.510700 0.695400 19.974600
							CHANNELS 3 Xrotation Yrotation Zrotation
							End Site
							{
								OFFSET 0 0 0
							}
						}
					}
				}
			}
		}
	}
	JOINT Spine_virtual
	{
		OFFSET 0.000000 0.000000 0.000000
		CHANNELS 3 Xrotation Yrotation Zrotation
		JOINT Spine
		{
			OFFSET -0.002400 12.777504 0.315300
			CHANNELS 3 Xrotation Yrotation Zrotation
			JOINT Spine1
			{
				OFFSET -0.002067 5.816869 0.032633
				CHANNELS 3 Xrotation Yrotation Zrotation
				JOINT Spine1_split
				{
					OFFSET -0.002067 5.816869 0.032633
					CHANNELS 3 Xrotation Yrotation Zrotation
					JOINT Spine2
					{
						OFFSET -0.002067 5.816869 0.032633
						CHANNELS 3 Xrotation Yrotation Zrotation
						JOINT Neck_virtual
						{
							OFFSET 0.000000 0.000000 0.000000
							CHANNELS 3 Xrotation Yrotation Zrotation
							JOINT Neck
							{
								OFFSET -0.003700 21.199493 -0.826900
								CHANNELS 3 Xrotation Yrotation Zrotation
								JOINT Head
								{
									OFFSET 0.000000 20.442200 4.834800
									CHANNELS 3 Xrotation Yrotation Zrotation
									JOINT HeadTop_End
									{
										OFFSET 0.000000 34.668396 4.968400
										CHANNELS 3 Xrotation Yrotation Zrotation
										End Site
										{
											OFFSET 0 0 0
										}
									}
								}
							}
						}
						JOINT LeftShoulder_virtual
						{
							OFFSET 0.000000 0.000000 0.000000
							CHANNELS 3 Xrotation Yrotation Zrotation
							JOINT LeftShoulder
							{
								OFFSET 3.288150 8.794197 -1.372250
								CHANNELS 3 Xrotation Yrotation Zrotation
								JOINT LeftShoulder_split
								{
									OFFSET 3.288150 8.794197 -1.372250
									CHANNELS 3 Xrotation Yrotation Zrotation
									JOINT LeftArm
									{
										OFFSET 11.953299 -2.279007 -0.146200
										CHANNELS 3 Xrotation Yrotation Zrotation
										JOINT LeftForeArm
										{
											OFFSET 18.448900 0.000000 0.000000
											CHANNELS 3 Xrotation Yrotation Zrotation
											JOINT LeftHand
											{
												OFFSET 29.527798 0.000000 0.000000
												CHANNELS 3 Xrotation Yrotation Zrotation
												End Site
												{
													OFFSET 0 0 0
												}
											}
										}
									}
								}
							}
						}
						JOINT RightShoulder_virtual
						{
							OFFSET 0.000000 0.000000 0.000000
							CHANNELS 3 Xrotation Yrotation Zrotation
							JOINT RightShoulder
							{
								OFFSET -3.249400 8.794197 -1.372250
								CHANNELS 3 Xrotation Yrotation Zrotation
								JOINT RightShoulder_split
								{
									OFFSET -3.249400 8.794197 -1.372250
									CHANNELS 3 Xrotation Yrotation Zrotation
									JOINT RightArm
									{
										OFFSET -11.953299 -2.279007 -0.146200
										CHANNELS 3 Xrotation Yrotation Zrotation
										JOINT RightForeArm
										{
											OFFSET -18.448900 0.000000 0.000000
											CHANNELS 3 Xrotation Yrotation Zrotation
											JOINT RightHand
											{
												OFFSET -29.527802 0.000000 0.000000
												CHANNELS 3 Xrotation Yrotation Zrotation
												End Site
												{
													OFFSET 0 0 0
												}
											}
										}
									}
								}
							}
						}
					}
				}
			}
		}
	}
}
MOTION
Frames: 11
Frame Time: 0.03333333
-2.774194 45.446594 84.722183 0.000000 0.000000 0.000000 18.620593 -23.450701 -5.726725 -18.253453 6.611501 1.820743 94.599602 -11.049282 -1.352584 39.721392 -8.596398 -28.645429 -0.421572 0.179492 -0.052612 0.000000 0.000000 0.000000 18.620593 -23.450701 -5.726725 -0.254849 12.471794 -6.387100 60.551929 9.301781 -14.675835 55.477255 9.037316 19.070599 17.284579 -2.890012 -18.703237 0.000000 0.000000 0.000000 18.620593 -23.450701 -5.726725 5.479731 0.253170 0.612159 -5.171064 1.550851 1.959064 0.000000 0.000000 0.000000 0.000000 0.000000 0.000000 -5.193917 1.508887 1.857959 -62.248753 1.353927 14.158356 12.349460 13.729144 -17.996369 0.000000 0.000000 0.000000 -5.193917 1.508887 1.857959 -18.582085 2.045158 -16.773565 0.000000 0.000000 0.000000 3.520080 11.137055 -50.723071 73.636809 -20.517128 30.047054 0.000000 0.000000 0.000000 -5.193917 1.508887 1.857959 -18.392412 3.617958 16.265218 0.000000 0.000000 0.000000 6.546134 -5.489176 58.074039 -12.534773 31.895023 15.129520 0.000000 0.000000 0.000000 
-2.584928 45.068382 86.849640 0.000000 0.000000 0.000000 20.508700 -24.001572 -5.867594 -16.424500 5.683158 0.515084 91.700829 -11.419965 -1.251798 38.870227 -8.625419 -29.531491 -0.676368 0.771625 -0.079984 0.000000 0.000000 0.000000 20.508700 -24.001572 -5.867594 -0.585987 11.448868 -6.279713 59.902849 9.582915 -14.336956 53.000448 8.440545 18.790299 19.106484 -3.625782 -17.625399 0.000000 0.000000 0.000000 20.508700 -24.001572 -5.867594 5.369406 0.160021 0.920282 -5.387900 1.463341 2.228129 0.000000 0.000000 0.000000 0.000000 0.000000 0.000000 -5.408688 1.438964 2.129569 -64.248687 1.118116 14.686590 13.384895 14.022325 -18.292367 0.000000 0.000000 0.000000 -5.408688 1.438964 2.129569 -18.927006 2.423263 -16.209299 0.000000 0.000000 0.000000 6.399252 13.475591 -49.024072 73.253328 -19.968920 30.111398 0.000000 0.000000 0.000000 -5.408688 1.438964 2.129569 -18.645064 3.158381 16.723947 0.000000 0.000000 0.000000 7.365358 -4.012502 58.411648 -23.798095 35.944209 23.539301 0.000000 0.000000 0.000000 
-2.523209 44.560501 88.900818 0.000000 0.000000 0.000000 22.646997 -24.244103 -5.830369 -14.917739 4.421380 -0.968240 88.816242 -10.323023 -0.892530 38.717081 -8.526327 -29.246645 -0.743909 0.262940 -0.424642 0.000000 0.000000 0.000000 22.646997 -24.244103 -5.830369 -0.463122 10.608819 -6.194349 58.918940 10.342650 -13.784695 52.446919 8.572728 19.397759 17.769333 -4.435074 -13.778867 0.000000 0.000000 0.000000 22.646997 -24.244103 -5.830369 5.287954 0.176419 1.091798 -5.579763 1.386651 2.467672 0.000000 0.000000 0.000000 0.000000 0.000000 0.000000 -5.597967 1.382292 2.371571 -66.531732 0.851087 14.977235 14.412290 14.182144 -18.577607 0.000000 0.000000 0.000000 -5.597967 1.382292 2.371571 -19.324738 2.867701 -15.372840 0.000000 0.000000 0.000000 11.222560 12.997944 -47.136092 70.495878 -22.628989 28.974468 0.000000 0.000000 0.000000 -5.597967 1.382292 2.371571 -18.954770 2.720326 17.238103 0.000000 0.000000 0.000000 8.007435 -1.543122 58.369021 -23.446760 42.276433 23.971092 0.000000 0.000000 0.000000 
-2.487415 43.861076 91.018036 0.000000 0.000000 0.000000 24.998689 -24.224816 -5.683315 -13.418211 2.775191 -2.792412 85.706778 -8.131002 -0.252573 38.509348 -8.449685 -29.060283 -0.383190 -0.711375 -0.457316 0.000000 0.000000 0.000000 24.998689 -24.224816 -5.683315 -0.048135 9.983985 -6.267283 57.557444 9.853396 -13.311368 53.650200 8.885248 19.590885 13.394286 -3.796230 -7.492411 0.000000 0.000000 0.000000 24.998689 -24.224816 -5.683315 5.245119 0.254996 1.179306 -5.734328 1.325680 2.674344 0.000000 0.000000 0.000000 0.000000 0.000000 0.000000 -5.749947 1.343243 2.579083 -68.979754 0.603839 15.062037 15.389053 14.174245 -18.750917 0.000000 0.000000 0.000000 -5.749947 1.343243 2.579083 -19.699147 3.311101 -14.383111 0.000000 0.000000 0.000000 15.604015 11.619168 -44.492412 63.822039 -28.749161 24.713737 0.000000 0.000000 0.000000 -5.749947 1.343243 2.579083 -19.283615 2.435057 17.604321 0.000000 0.000000 0.000000 8.641508 1.247376 57.688980 -13.643504 49.929257 16.025027 0.000000 0.000000 0.000000 
-2.388808 42.987076 93.317032 0.000000 0.000000 0.000000 27.594548 -23.850044 -5.600543 -11.866859 0.921688 -4.684197 81.955775 -7.356641 0.299032 38.301003 -8.576496 -29.720288 -0.696341 -0.246692 -0.517354 0.000000 0.000000 0.000000 27.594548 -23.850044 -5.600543 0.197333 9.438543 -6.028763 56.794645 9.534955 -13.060238 53.686865 8.920989 19.643055 11.110049 -3.597522 -4.417815 0.000000 0.000000 0.000000 27.594548 -23.850044 -5.600543 5.237365 0.296899 1.336159 -5.845208 1.287939 2.843430 0.000000 0.000000 0.000000 0.000000 0.000000 0.000000 -5.858588 1.328610 2.746265 -71.397743 0.420249 14.922867 16.278047 14.022164 -18.736358 0.000000 0.000000 0.000000 -5.858588 1.328610 2.746265 -19.982830 3.650326 -13.444830 0.000000 0.000000 0.000000 18.325693 10.812078 -42.020673 54.988521 -34.777769 18.159100 0.000000 0.000000 0.000000 -5.858588 1.328610 2.746265 -19.525831 2.412063 17.411494 0.000000 0.000000 0.000000 9.771836 3.552142 56.940422 3.947485 55.524869 0.152036 0.000000 0.000000 0.000000 
-2.266786 41.877571 95.715958 0.000000 0.000000 0.000000 30.478459 -23.108996 -5.455676 -10.519619 -1.129243 -6.774114 78.146701 -6.495663 1.081590 37.434112 -8.690845 -31.011924 -0.597119 0.309121 -0.391543 0.000000 0.000000 0.000000 30.478459 -23.108996 -5.455676 0.710558 8.911821 -5.861428 56.110783 10.821539 -12.628813 53.788805 9.276946 20.459227 9.363535 -4.583540 -3.818795 0.000000 0.000000 0.000000 30.478459 -23.108996 -5.455676 5.258001 0.387193 1.421371 -5.912642 1.281297 2.969702 0.000000 0.000000 0.000000 0.000000 0.000000 0.000000 -5.924805 1.345332 2.866668 -73.590357 0.341946 14.664744 17.075731 13.759626 -18.622806 0.000000 0.000000 0.000000 -5.924805 1.345332 2.866668 -20.144861 3.830061 -12.686438 0.000000 0.000000 0.000000 19.494791 10.754154 -40.274702 47.363168 -39.125858 12.447336 0.000000 0.000000 0.000000 -5.924805 1.345332 2.866668 -19.646723 2.493592 16.653181 0.000000 0.000000 0.000000 11.247102 5.054227 56.197905 21.701581 57.218001 -16.941553 0.000000 0.000000 0.000000 
-2.186804 40.468140 98.256134 0.000000 0.000000 0.000000 33.712021 -21.897462 -5.224188 -9.167350 -3.296682 -8.865323 73.924749 -5.488778 2.129227 36.622986 -8.798254 -32.257337 -0.577985 0.629282 -0.288483 0.000000 0.000000 0.000000 33.712021 -21.897462 -5.224188 1.366472 8.457401 -5.718512 55.335109 11.874361 -12.210410 54.024518 9.827076 21.675127 7.178662 -5.421546 -3.388967 0.000000 0.000000 0.000000 33.712021 -21.897462 -5.224188 5.280665 0.509516 1.454537 -5.947387 1.302974 3.055231 0.000000 0.000000 0.000000 0.000000 0.000000 0.000000 -5.959000 1.389032 2.943502 -75.393909 0.333436 14.364689 17.775806 13.474846 -18.570741 0.000000 0.000000 0.000000 -5.959000 1.389032 2.943502 -20.171719 3.805439 -12.171242 0.000000 0.000000 0.000000 20.086309 11.120574 -39.153516 43.022399 -42.696267 9.867698 0.000000 0.000000 0.000000 -5.959000 1.389032 2.943502 -19.629144 2.652910 15.539280 0.000000 0.000000 0.000000 13.365501 4.941607 55.299322 33.181967 57.778981 -28.838449 0.000000 0.000000 0.000000 
-2.144498 38.747238 100.923889 0.000000 0.000000 0.000000 37.359424 -20.164896 -4.939627 -7.890026 -5.763203 -10.938378 69.337663 -4.099458 3.577280 35.868793 -9.013194 -33.858880 -0.746880 0.731332 0.174194 0.000000 0.000000 0.000000 37.359424 -20.164896 -4.939627 1.754688 7.730443 -5.687283 54.424740 11.254537 -11.808443 54.432561 9.850894 21.547450 5.386769 -4.568720 -3.006305 0.000000 0.000000 0.000000 37.359424 -20.164896 -4.939627 5.295368 0.617517 1.502029 -5.953210 1.340449 3.108458 0.000000 0.000000 0.000000 0.000000 0.000000 0.000000 -5.964449 1.445870 2.988520 -76.665021 0.334716 14.146025 18.334179 13.277329 -18.752891 0.000000 0.000000 0.000000 -5.964449 1.445870 2.988520 -20.054457 3.629518 -11.796363 0.000000 0.000000 0.000000 20.841429 11.038360 -38.363393 42.921308 -46.109473 11.242504 0.000000 0.000000 0.000000 -5.964449 1.445870 2.988520 -19.495088 2.789001 14.267715 0.000000 0.000000 0.000000 16.096533 2.797548 53.948953 34.870575 60.658207 -31.945987 0.000000 0.000000 0.000000 
-2.188501 36.630623 103.766647 0.000000 0.000000 0.000000 41.415002 -18.120825 -4.507560 -6.730720 -8.097718 -12.733755 64.709076 -2.560689 5.180236 34.519616 -8.841320 -34.783076 -0.688755 0.529381 0.488924 0.000000 0.000000 0.000000 41.415002 -18.120825 -4.507560 2.198689 7.084593 -5.730186 53.511944 11.081330 -11.475084 54.549224 10.344812 22.664586 3.336295 -4.359720 -2.927062 0.000000 0.000000 0.000000 41.415002 -18.120825 -4.507560 5.292568 0.768778 1.453144 -5.937188 1.375681 3.140232 0.000000 0.000000 0.000000 0.000000 0.000000 0.000000 -5.947422 1.496899 3.016121 -77.369555 0.318741 14.143544 18.707729 13.205699 -19.280243 0.000000 0.000000 0.000000 -5.947422 1.496899 3.016121 -19.807629 3.375729 -11.345078 0.000000 0.000000 0.000000 22.560955 10.331087 -37.622103 46.219043 -49.776916 15.947699 0.000000 0.000000 0.000000 -5.947422 1.496899 3.016121 -19.250058 3.061573 13.007173 0.000000 0.000000 0.000000 19.334179 -0.819406 52.338029 29.277818 64.736813 -27.543122 0.000000 0.000000 0.000000 
-2.281713 34.036087 106.895439 0.000000 0.000000 0.000000 45.837359 -15.967638 -3.952090 -5.680817 -10.029852 -14.503965 60.411896 -1.583891 6.965368 31.365728 -7.841795 -34.711920 0.051549 0.688400 -0.149081 0.000000 0.000000 0.000000 45.837359 -15.967638 -3.952090 3.052563 6.273452 -6.076600 51.972822 11.891643 -11.059803 55.017983 11.025792 24.016700 0.763471 -4.637919 -2.390690 0.000000 0.000000 0.000000 45.837359 -15.967638 -3.952090 5.258673 0.964657 1.285867 -5.920063 1.395550 3.162205 0.000000 0.000000 0.000000 0.000000 0.000000 0.000000 -5.928509 1.528368 3.039177 -77.537059 0.327740 14.358169 18.804880 13.372511 -20.091594 0.000000 0.000000 0.000000 -5.928509 1.528368 3.039177 -19.468314 3.099384 -10.702308 0.000000 0.000000 0.000000 25.547310 9.078763 -37.003059 49.928570 -53.657259 21.551366 0.000000 0.000000 0.000000 -5.928509 1.528368 3.039177 -18.943313 3.374953 11.748493 0.000000 0.000000 0.000000 22.867159 -4.426800 50.803794 22.944480 66.630360 -21.155848 0.000000 0.000000 0.000000 
-2.368496 30.975670 110.073990 0.000000 0.000000 0.000000 50.668553 -13.758396 -3.507094 -4.152804 -11.512982 -15.359844 55.420350 -1.242181 8.838519 28.334777 -6.909518 -34.788141 0.311492 0.456031 -0.175665 0.000000 0.000000 0.000000 50.668553 -13.758396 -3.507094 3.799109 5.354142 -6.425438 49.799630 10.432836 -10.920608 55.704014 11.271803 24.185801 -0.754300 -3.085116 -2.354073 0.000000 0.000000 0.000000 50.668553 -13.758396 -3.507094 5.160906 1.099179 1.193533 -5.939495 1.396343 3.180708 0.000000 0.000000 0.000000 0.000000 0.000000 0.000000 -5.945620 1.535404 3.062427 -77.311143 0.502894 14.798254 18.603581 13.949383 -21.106340 0.000000 0.000000 0.000000 -5.945620 1.535404 3.062427 -19.120063 2.857874 -9.935739 0.000000 0.000000 0.000000 29.456174 7.507044 -36.652834 54.244700 -56.836842 27.928881 0.000000 0.000000 0.000000 -5.945620 1.535404 3.062427 -18.580944 3.775149 10.492607 0.000000 0.000000 0.000000 27.175397 -7.986246 49.020281 27.029005 65.735605 -23.270637 0.000000 0.000000 0.000000 
